<?xml version="1.0" standalone="no"?>
<!DOCTYPE svg PUBLIC "-//W3C//DTD SVG 20010904//EN"
 "http://www.w3.org/TR/2001/REC-SVG-20010904/DTD/svg10.dtd">
<svg version="1.0" xmlns="http://www.w3.org/2000/svg"
 width="260.000000pt" height="260.000000pt" viewBox="0 0 260.000000 260.000000"
 preserveAspectRatio="xMidYMid meet">
<metadata>
Created by potrace 1.14, written by Peter Selinger 2001-2017
</metadata>
<g transform="translate(0.000000,260.000000) scale(0.100000,-0.100000)"
fill="#000000" stroke="none">
<path d="M1032 2585 c-161 -30 -330 -109 -474 -222 -47 -38 -175 -171 -219
-228 -139 -182 -234 -393 -285 -630 -87 -407 23 -834 288 -1113 195 -206 436
-334 707 -377 84 -13 346 -13 401 0 14 3 50 10 80 16 126 25 327 107 453 186
142 88 290 230 385 369 78 113 157 294 172 394 1 3 5 23 10 45 31 128 33 334
4 495 -9 56 -34 157 -48 195 -80 223 -189 399 -337 545 -161 158 -373 254
-629 285 -30 4 -59 9 -63 12 -54 33 -325 50 -445 28z"/>
</g>
</svg>
