<svg width="20" height="21" viewBox="0 0 20 21" fill="none" xmlns="http://www.w3.org/2000/svg">
<g clip-path="url(#clip0_60_163)">
<path d="M7.49984 16.6571C3.33317 17.9071 3.33317 14.5738 1.6665 14.1571M13.3332 19.1571V15.9321C13.3644 15.5347 13.3107 15.1353 13.1757 14.7603C13.0406 14.3852 12.8273 14.0433 12.5498 13.7571C15.1665 13.4654 17.9165 12.4738 17.9165 7.92376C17.9163 6.76028 17.4687 5.64143 16.6665 4.79876C17.0464 3.78085 17.0195 2.65572 16.5915 1.65709C16.5915 1.65709 15.6082 1.36543 13.3332 2.89043C11.4232 2.37278 9.40983 2.37278 7.49984 2.89043C5.22484 1.36543 4.2415 1.65709 4.2415 1.65709C3.81348 2.65572 3.78662 3.78085 4.1665 4.79876C3.35828 5.64768 2.91027 6.77665 2.9165 7.94876C2.9165 12.4654 5.6665 13.4571 8.28317 13.7821C8.009 14.0654 7.79756 14.4033 7.66259 14.7737C7.52763 15.1441 7.47218 15.5388 7.49984 15.9321V19.1571" stroke="#9E9E9E" stroke-width="1.64976" stroke-linecap="round" stroke-linejoin="round"/>
</g>
<defs>
<clipPath id="clip0_60_163">
<rect width="20" height="20" fill="white" transform="translate(0 0.82373)"/>
</clipPath>
</defs>
</svg>
