<svg width="20" height="21" viewBox="0 0 20 21" fill="none" xmlns="http://www.w3.org/2000/svg">
<path d="M13.3333 7.49072C14.6593 7.49072 15.9311 8.01751 16.8688 8.95519C17.8065 9.89287 18.3333 11.1646 18.3333 12.4907V18.3241H14.9999V12.4907C14.9999 12.0487 14.8243 11.6248 14.5118 11.3122C14.1992 10.9997 13.7753 10.8241 13.3333 10.8241C12.8912 10.8241 12.4673 10.9997 12.1547 11.3122C11.8422 11.6248 11.6666 12.0487 11.6666 12.4907V18.3241H8.33325V12.4907C8.33325 11.1646 8.86004 9.89287 9.79772 8.95519C10.7354 8.01751 12.0072 7.49072 13.3333 7.49072Z" stroke="#9E9E9E" stroke-width="1.64976" stroke-linecap="round" stroke-linejoin="round"/>
<path d="M4.99984 8.32422H1.6665V18.3242H4.99984V8.32422Z" stroke="#9E9E9E" stroke-width="1.64976" stroke-linecap="round" stroke-linejoin="round"/>
<path d="M3.33317 5.82357C4.25365 5.82357 4.99984 5.07738 4.99984 4.1569C4.99984 3.23643 4.25365 2.49023 3.33317 2.49023C2.4127 2.49023 1.6665 3.23643 1.6665 4.1569C1.6665 5.07738 2.4127 5.82357 3.33317 5.82357Z" stroke="#9E9E9E" stroke-width="1.64976" stroke-linecap="round" stroke-linejoin="round"/>
</svg>
